# xmcd
#
# Track frame offsets: 
#        150
#        18823
#        49133
#        68424
#        85642
#        117790
#        143571
#        168820
#        188162
#        211306
#
# Disc length: 3057 seconds
#
# Revision: 0
# Processed by: cddbd v1.5.2PL0 Copyright (c) Steve Scherf et al.
# Submitted via: ExactAudioCopy v0.99pb5
#
DISCID=720bef0a
DTITLE=Greg Baril - At Last
DYEAR=1900
DGENRE=Blues
TTITLE0=It's Mine
TTITLE1=Circle Of Pain
TTITLE2=Ain't That Sufferin
TTITLE3=News To Me
TTITLE4=Jimi's Thang
TTITLE5=Jo Jo
TTITLE6=Look In The Mirror
TTITLE7=Love Is On The Line
TTITLE8=Somethings (You Can't Hide)
TTITLE9=Driftin'
EXTD=
EXTT0=
EXTT1=
EXTT2=
EXTT3=
EXTT4=
EXTT5=
EXTT6=
EXTT7=
EXTT8=
EXTT9=
PLAYORDER=
